PathFileType	4	(X/Y/Z)	TVC_16_BWA4_walk_RCNL2025.trc
DataRate	CameraRate	NumFrames	NumMarkers	Units	OrigDataRate	OrigDataStartFrame	OrigNumFrames
100	100	5	27	mm	100	829	947
Frame#	Time	R_Shoulder			L_Shoulder			C7			J_Notch			R_Elbow			L_Elbow			R_Wrist			L_Wrist			R_Asis			L_Asis			R_Psis			L_Psis			Sacral			Thoracic			Sternum			R_Thigh_Lateral			R_Knee_Lateral			R_Shank_Lateral			R_Ankle_Lateral			R_Heel			R_Toe			L_Thigh_Lateral			L_Knee_Lateral			L_Shank_Lateral			L_Ankle_Lateral			L_Heel			L_Toe		
		X1	Y1	Z1	X2	Y2	Z2	X3	Y3	Z3	X4	Y4	Z4	X5	Y5	Z5	X6	Y6	Z6	X7	Y7	Z7	X8	Y8	Z8	X9	Y9	Z9	X10	Y10	Z10	X11	Y11	Z11	X12	Y12	Z12	X13	Y13	Z13	X14	Y14	Z14	X15	Y15	Z15	X16	Y16	Z16	X17	Y17	Z17	X18	Y18	Z18	X19	Y19	Z19	X20	Y20	Z20	X21	Y21	Z21	X22	Y22	Z22	X23	Y23	Z23	X24	Y24	Z24	X25	Y25	Z25	X26	Y26	Z26	X27	Y27	Z27
829	8.28000000	718.451843	1299.079956	401.262543	685.080078	1289.100586	74.760292	634.435608	1350.390747	248.030853	773.094788	1220.687622	244.364395	674.700195	993.478394	498.232910	696.014771	965.510620	28.936279	766.547821	780.161530	500.646332	786.408356	777.149384	98.993156	733.731934	871.564026	379.676056	687.814636	884.570984	118.785240	547.116394	909.244141	331.423920	533.545044	906.947815	224.453156	540.330719	908.095978	277.938538	561.760010	1092.152466	262.592010	796.231628	1025.410522	235.040039	692.811279	590.957703	474.781006	687.210632	414.501129	388.984955	632.410339	269.396210	456.772797	528.205627	67.769997	406.911835	472.594208	64.803741	364.450562	641.414856	43.837460	356.295410	708.433289	596.750122	36.084221	770.450073	426.925537	126.314484	706.309814	285.090637	66.128487	655.133606	64.757393	143.758163	614.682739	62.111881	192.990326	790.374329	41.093876	165.758652
830	8.29000000	721.557129	1299.180786	398.790344	687.856689	1289.080933	72.305710	637.488342	1350.490967	245.616333	776.015015	1220.652222	241.916046	676.420044	993.875610	496.080750	699.719849	965.321960	26.990938	766.502838	779.816925	500.148575	790.891571	777.460724	97.333542	736.201965	871.812012	377.347717	690.767029	884.266174	116.557755	549.589233	909.496704	328.883789	536.236877	907.033203	221.849335	542.913055	908.264954	275.366562	564.574951	1092.340576	260.064026	799.023682	1025.335938	232.549576	696.251099	591.221558	472.736328	691.546326	414.580719	387.542755	635.324890	270.177856	455.863892	528.966980	69.564507	406.987274	473.294067	67.157890	364.620544	641.611450	43.844269	356.254761	710.582214	596.129333	34.497200	771.989685	426.314850	125.147758	707.500061	284.484863	65.367378	655.238403	64.637611	143.594620	614.756348	62.204124	192.816513	790.383179	41.035213	165.703537
831	8.30000000	724.583740	1299.318115	396.315063	690.704773	1289.127197	69.830376	640.542542	1350.644531	243.163132	778.920288	1220.654175	239.472839	678.055969	994.346497	493.971161	703.574402	965.190796	25.043501	766.306793	779.547516	499.754364	795.442566	777.819000	95.743671	738.502319	872.202759	375.126831	693.744568	883.963440	114.404678	551.977844	909.845947	326.193695	538.887268	907.184570	219.113617	545.432556	908.515259	272.653656	567.339844	1092.595459	257.447144	801.771057	1025.309326	230.057465	699.782104	591.574951	470.762482	696.420288	414.736816	386.128082	638.627319	271.069031	454.930420	529.894836	71.654556	407.010101	474.193939	69.911133	364.710358	641.859802	43.852451	356.188416	712.208069	595.480164	32.940083	773.352417	425.741455	123.998383	708.537659	283.913391	64.603981	655.320129	64.505379	143.434845	614.819763	62.274529	192.641449	790.386292	40.975777	165.646744
832	8.31000000	727.515930	1299.489502	393.842743	693.649292	1289.232544	67.341011	643.597107	1350.842407	240.668671	781.809021	1220.685059	237.046188	679.594788	994.885254	491.895966	707.567383	965.122070	23.089424	765.966614	779.359100	499.454056	800.022156	778.204437	94.209045	740.627625	872.719849	373.015778	696.727661	883.681885	112.329575	554.280701	910.280579	323.380524	541.487122	907.408020	216.275070	547.883911	908.844299	269.827797	570.051514	1092.911133	254.750244	804.463318	1025.323853	227.583694	703.474609	592.009338	468.852142	701.890137	414.969574	384.740753	642.364014	272.074768	453.965759	531.026001	74.065765	406.962891	475.338165	73.099701	364.694672	642.170654	43.863838	356.088196	713.415222	594.830444	31.407393	774.547058	425.213135	122.872032	709.425171	283.381622	63.840908	655.374207	64.363647	143.280670	614.869324	62.327278	192.465225	790.379700	40.917023	165.589798
833	8.32000000	730.339294	1299.689453	391.381470	696.712463	1289.386719	64.847580	646.649902	1351.072266	238.133881	784.679199	1220.732788	234.649704	681.020569	995.481995	489.848694	711.681763	965.118164	21.123241	765.489685	779.252930	499.235764	804.597534	778.600342	92.714764	742.578064	873.336365	371.012787	699.693787	883.436401	110.332092	556.496521	910.784180	320.478058	544.026855	907.705322	213.368317	550.261688	909.244751	266.923187	572.707397	1093.277466	251.986328	807.089355	1025.367798	225.151077	707.397278	592.518188	466.997437	707.992981	415.281677	383.387207	646.569458	273.200348	452.968872	532.397827	76.819557	406.831451	476.771149	76.753548	364.552795	642.554016	43.882652	355.947418	714.323730	594.203552	29.894541	775.586243	424.732849	121.772690	710.167847	282.891998	63.080673	655.399536	64.214912	143.133408	614.903687	62.365799	192.287781	790.362488	40.860779	165.533997
